<?xml version="1.0" standalone="no"?>
<!DOCTYPE svg PUBLIC "-//W3C//DTD SVG 20010904//EN"
 "http://www.w3.org/TR/2001/REC-SVG-20010904/DTD/svg10.dtd">
<svg version="1.0" xmlns="http://www.w3.org/2000/svg"
 width="1500.000000pt" height="1500.000000pt" viewBox="0 0 1500.000000 1500.000000"
 preserveAspectRatio="xMidYMid meet">

<g transform="translate(0.000000,1500.000000) scale(0.100000,-0.100000)"
fill="#000000" stroke="none">
<path d="M0 7500 l0 -7500 7500 0 7500 0 0 7500 0 7500 -7500 0 -7500 0 0
-7500z m7365 1285 c287 -61 434 -276 367 -536 -27 -102 -75 -171 -233 -334
-159 -163 -190 -210 -213 -322 -10 -46 -22 -73 -37 -85 -46 -38 -103 -35 -145
7 -22 22 -24 33 -24 107 0 152 44 248 201 435 105 126 133 185 134 278 0 88
-24 126 -102 162 -50 23 -64 25 -161 21 -120 -5 -184 -24 -311 -90 -65 -34
-83 -39 -121 -35 -64 7 -100 49 -100 118 0 84 37 127 165 192 60 30 198 74
269 86 82 14 236 12 311 -4z m-99 -1480 c17 -7 44 -30 60 -51 26 -34 29 -45
29 -119 0 -74 -3 -85 -28 -118 -114 -150 -347 -63 -347 129 0 136 145 216 286
159z"/>
</g>
</svg>
